#!OML:ASF F:\VICON\USERDATA\INSTALL\rory3\rory3.ASF
:FULLY-SPECIFIED
:DEGREES
284
root 13.181 17.0661 28.9655 4.08728 35.6063 8.32261
lowerback 7.87755 -0.127994 -5.42116
upperback 0.00973234 -0.64311 0.433735
thorax -4.3509 -0.196174 3.57652
lowerneck -14.5887 -2.66979 -8.90894
upperneck 18.998 -1.98978 2.22987
head 8.4538 -1.33334 1.99437
rclavicle 1.03269e-013 -3.97569e-015
rhumerus -37.8378 -14.5853 -76.4843
rradius 28.4226
rwrist 9.10942
rhand -13.2194 13.0596
rfingers 7.12502
rthumb 12.8817 -16.5228
lclavicle 1.03269e-013 -3.97569e-015
lhumerus -32.9823 13.6506 81.5304
lradius 23.6838
lwrist -13.5641
lhand -14.1625 20.6446
lfingers 7.12502
lthumb 11.9724 50.2822
rfemur -32.2064 -5.57235 14.7928
rtibia 68.6273
rfoot -8.70107 -3.69697
rtoes -4.80148
lfemur -9.40587 -3.63998 -32.6581
ltibia 32.2753
lfoot -16.0805 2.00762
ltoes 9.31867
285
root 13.309 17.0542 29.1622 4.21617 35.666 8.42359
lowerback 7.95485 -0.171652 -5.49576
upperback -0.12618 -0.718491 0.405716
thorax -4.52878 -0.224225 3.60009
lowerneck -13.7751 -2.57488 -8.31159
upperneck 18.3135 -1.97214 1.70445
head 8.06372 -1.32454 1.72383
rclavicle -9.10434e-014 1.66979e-014
rhumerus -38.5375 -14.8016 -76.4074
rradius 28.2709
rwrist 9.14558
rhand -13.2492 13.0885
rfingers 7.12502
rthumb 12.853 -16.4958
lclavicle -9.10434e-014 1.66979e-014
lhumerus -32.9525 12.8061 81.4395
lradius 24.347
lwrist -13.4882
lhand -13.9609 14.4587
lfingers 7.12502
lthumb 12.1668 44.0849
rfemur -33.0799 -5.3093 14.7323
rtibia 66.5596
rfoot -9.19959 -3.97843
rtoes -4.55952
lfemur -8.34295 -3.39084 -32.8286
ltibia 31.8756
lfoot -16.8512 2.31857
ltoes 3.86551
286
root 13.4315 17.058 29.3551 4.17954 35.6592 8.28996
lowerback 7.95365 -0.201814 -5.5573
upperback -0.0763188 -0.758366 0.501757
thorax -4.46984 -0.24431 3.73954
lowerneck -13.525 -2.56331 -7.84597
upperneck 17.9673 -2.00657 1.30676
head 7.89562 -1.34188 1.51198
rclavicle -4.58199e-014 0
rhumerus -38.8078 -14.8294 -76.4809
rradius 28.1173
rwrist 8.81682
rhand -13.4121 13.2345
rfingers 7.12502
rthumb 12.6959 -16.3595
lclavicle -4.58199e-014 0
lhumerus -32.4568 11.0948 82.1646
lradius 25.663
lwrist -11.7467
lhand -14.0292 16.4194
lfingers 7.12502
lthumb 12.101 46.0495
rfemur -33.6917 -4.85403 14.8989
rtibia 64.1035
rfoot -9.45665 -4.38179
rtoes -5.62702
lfemur -7.07605 -3.37575 -32.7564
ltibia 31.2714
lfoot -17.4634 2.86189
ltoes 1.55906
287
root 13.561 17.0591 29.5533 4.05449 35.7928 8.05153
lowerback 7.82554 -0.274222 -5.51999
upperback 0.0759913 -0.831991 0.655829
thorax -4.2286 -0.290502 3.88455
lowerneck -14.1285 -2.58604 -8.23981
upperneck 18.3829 -1.9835 1.76121
head 8.14976 -1.3202 1.72751
rclavicle 6.55989e-015 3.18055e-015
rhumerus -38.8776 -14.7402 -76.584
rradius 27.8891
rwrist 8.38068
rhand -13.4235 13.1689
rfingers 7.12502
rthumb 12.6849 -16.4258
lclavicle 6.55989e-015 3.18055e-015
lhumerus -31.5673 10.5911 82.4662
lradius 26.0581
lwrist -11.0781
lhand -14.3344 18.0384
lfingers 7.12502
lthumb 11.8066 47.6856
rfemur -34.0418 -4.57121 15.1271
rtibia 61.3159
rfoot -9.43068 -4.76974
rtoes -5.82204
lfemur -5.83815 -3.6188 -32.5433
ltibia 30.599
lfoot -17.8833 2.35035
ltoes 4.27226
288
root 13.6925 17.0567 29.7492 4.35763 35.9601 8.26956
lowerback 7.73285 -0.356372 -5.69275
upperback 0.052211 -0.952573 0.643204
thorax -4.18612 -0.347696 3.98075
lowerneck -15.5634 -2.65739 -9.43427
upperneck 19.8193 -1.91661 3.02919
head 8.91779 -1.2665 2.36396
rclavicle 3.598e-014 -6.36111e-015
rhumerus -39.2125 -14.9561 -76.5106
rradius 27.7553
rwrist 8.6271
rhand -12.9366 13.1875
rfingers 7.12502
rthumb 13.1543 -16.3776
lclavicle 3.598e-014 -6.36111e-015
lhumerus -30.9412 10.0574 82.6513
lradius 26.5679
lwrist -10.5523
lhand -14.7906 19.301
lfingers 7.12502
lthumb 11.3667 48.973
rfemur -34.5631 -4.28318 14.8823
rtibia 58.269
rfoot -9.56487 -5.17469
rtoes -5.03013
lfemur -4.86659 -3.37527 -32.7135
ltibia 30.0098
lfoot -18.6895 1.87415
ltoes 2.71788
289
root 13.8158 17.05 29.9307 4.80545 35.9764 8.54428
lowerback 7.7734 -0.392205 -5.83345
upperback -0.0838288 -1.02389 0.553361
thorax -4.34305 -0.373039 3.97623
lowerneck -15.3417 -2.72327 -9.28213
upperneck 19.4878 -2.04119 2.89427
head 8.76897 -1.32296 2.27511
rclavicle -9.39258e-015 1.59028e-015
rhumerus -39.6112 -15.4804 -76.3554
rradius 27.6921
rwrist 9.13865
rhand -12.6226 13.1149
rfingers 7.12502
rthumb 13.457 -16.4304
lclavicle -9.39258e-015 1.59028e-015
lhumerus -30.5652 8.68594 83.0167
lradius 27.7552
lwrist -9.45782
lhand -14.9415 20.7977
lfingers 7.12502
lthumb 11.2212 50.4776
rfemur -35.1172 -3.79782 14.5141
rtibia 55.0146
rfoot -9.18467 -5.62088
rtoes -4.1806
lfemur -3.91712 -2.7459 -32.9321
ltibia 29.3292
lfoot -19.3401 2.5871
ltoes -0.945877
290
root 13.9401 17.038 30.1165 5.14107 36.0348 8.62542
lowerback 7.66207 -0.491646 -5.94414
upperback -0.12956 -1.1589 0.594974
thorax -4.31047 -0.43725 4.09538
lowerneck -14.8693 -2.70186 -8.85377
upperneck 18.8021 -2.07084 2.44499
head 8.44252 -1.34195 2.04553
rclavicle 8.13029e-014 1.35174e-014
rhumerus -39.8281 -15.5609 -76.3526
rradius 27.6787
rwrist 9.38979
rhand -12.7798 13.1324
rfingers 7.12502
rthumb 13.3055 -16.4229
lclavicle 8.13029e-014 1.35174e-014
lhumerus -30.2176 7.6177 83.2621
lradius 28.9643
lwrist -8.43956
lhand -15.1726 21.3156
lfingers 7.12502
lthumb 10.9982 51.0075
rfemur -35.4738 -3.4851 14.3395
rtibia 51.5934
rfoot -8.31284 -6.04317
rtoes -4.52894
lfemur -2.89389 -2.20072 -32.9625
ltibia 28.5304
lfoot -19.2266 3.50071
ltoes -1.83892
291
root 14.0618 17.0307 30.3163 5.65223 36.1458 9.21581
lowerback 7.55219 -0.586723 -6.59881
upperback -0.0568425 -1.33384 0.582181
thorax -4.13949 -0.517697 4.46676
lowerneck -14.3223 -2.67479 -8.44311
upperneck 17.8509 -2.09118 1.96448
head 8.0163 -1.35588 1.81262
rclavicle 1.85367e-014 -3.97569e-015
rhumerus -39.7508 -15.4612 -76.4242
rradius 27.4818
rwrist 9.49631
rhand -12.7875 13.1226
rfingers 7.12502
rthumb 13.298 -16.4331
lclavicle 1.85367e-014 -3.97569e-015
lhumerus -29.5381 7.12713 83.3775
lradius 29.6419
lwrist -7.77438
lhand -15.1574 22.0518
lfingers 7.12502
lthumb 11.0129 51.7429
rfemur -35.6576 -3.0658 13.6753
rtibia 48.0294
rfoot -7.52246 -6.58705
rtoes -7.21328
lfemur -1.75285 -1.85485 -33.39
ltibia 27.743
lfoot -19.2253 3.8202
ltoes -1.65775
292
root 14.1823 17.0354 30.5163 6.18548 36.2667 9.80702
lowerback 7.4299 -0.676359 -7.27274
upperback 0.0189979 -1.5 0.560837
thorax -3.9553 -0.595571 4.83776
lowerneck -14.1052 -2.59778 -8.09788
upperneck 17.2185 -2.01917 1.60385
head 7.75565 -1.32278 1.64341
rclavicle 7.11152e-014 -1.90833e-014
rhumerus -39.5913 -15.5151 -76.4461
rradius 27.125
rwrist 9.89257
rhand -12.7038 13.1321
rfingers 7.12502
rthumb 13.3787 -16.4184
lclavicle 7.11152e-014 -1.90833e-014
lhumerus -28.7479 6.97727 83.3591
lradius 30.121
lwrist -7.50309
lhand -15.4525 21.3601
lfingers 7.12502
lthumb 10.7283 51.0661
rfemur -35.7494 -2.49368 12.9303
rtibia 44.2256
rfoot -6.22632 -7.41389
rtoes -6.82642
lfemur -0.601921 -1.48171 -33.755
ltibia 26.8591
lfoot -19.4256 3.45337
ltoes -1.74802
293
root 14.3071 17.0281 30.7128 6.52317 36.2746 9.78565
lowerback 7.22087 -0.76526 -7.39809
upperback -0.0879598 -1.61363 0.640749
thorax -3.929 -0.647187 4.99994
lowerneck -13.7219 -2.50938 -7.65619
upperneck 16.7389 -1.96012 1.21213
head 7.51745 -1.29517 1.45021
rclavicle 4.27387e-014 -1.03368e-014
rhumerus -39.7354 -15.617 -76.4108
rradius 26.8613
rwrist 10.2981
rhand -12.4913 12.9449
rfingers 7.12502
rthumb 13.5836 -16.592
lclavicle 4.27387e-014 -1.03368e-014
lhumerus -28.2389 6.97261 83.24
lradius 30.7444
lwrist -7.74517
lhand -15.6455 20.8464
lfingers 7.12502
lthumb 10.5421 50.562
rfemur -35.842 -1.85244 12.7053
rtibia 40.2649
rfoot -5.95691 -8.01253
rtoes -13.9887
lfemur 0.44254 -1.07146 -33.6102
ltibia 25.7747
lfoot -19.3714 2.85624
ltoes -1.38377
294
root 14.4313 17.0199 30.9192 6.54893 36.2985 9.42253
lowerback 7.15814 -0.832507 -7.21518
upperback -0.285652 -1.68652 0.755825
thorax -4.09236 -0.674266 5.02656
lowerneck -13.6994 -2.38598 -7.59957
upperneck 16.769 -1.79453 1.15773
head 7.51454 -1.21815 1.44107
rclavicle -4.29872e-014 1.74931e-014
rhumerus -40.2401 -15.6964 -76.2912
rradius 26.7057
rwrist 10.7035
rhand -12.5019 13.0076
rfingers 7.12502
rthumb 13.5733 -16.5299
lclavicle -4.29872e-014 1.74931e-014
lhumerus -28.133 6.21254 83.2788
lradius 31.8068
lwrist -7.21985
lhand -15.7517 23.0508
lfingers 7.12502
lthumb 10.4397 52.7716
rfemur -35.5545 -0.88148 12.6716
rtibia 36.1114
rfoot -7.34709 -9.63928
rtoes -4.53309
lfemur 1.65057 -0.654779 -33.0966
ltibia 24.6914
lfoot -19.3034 2.22846
ltoes -1.61578
